simulation
nRows=61
nColumns=15
endheader
time  TH_x TH_y TH_z SC_y  SC_z  SC_x  AC_y  AC_z  AC_x  GH_y  GH_z  GH_yy  EL_x  PS_y
0.000000  0.000000  0.000000  0.000000  -17.015487  1.232682  -26.921208  41.536556  23.293821  7.533089  34.987551  19.608722  21.437710  25.656935  137.941653
0.000112  0.000000  0.000000  0.000000  -17.015487  1.232682  -23.171208  42.663205  20.779107  4.531585  34.987551  19.608722  21.437710  25.656935  137.941653
0.000224  0.000000  0.000000  0.000000  -17.015487  1.232682  -19.421208  43.632235  18.213973  1.629406  34.987551  19.608722  21.437710  25.656935  137.941653
0.000336  0.000000  0.000000  0.000000  -17.015487  1.232682  -15.671208  44.452048  15.606471  -1.187803  34.987551  19.608722  21.437710  25.656935  137.941653
0.000448  0.000000  0.000000  0.000000  -17.015487  1.232682  -11.921208  45.129935  12.963987  -3.933807  34.987551  19.608722  21.437710  25.656935  137.941653
0.000560  0.000000  0.000000  0.000000  -17.015487  1.232682  -8.171208  45.671959  10.293337  -6.621755  34.987551  19.608722  21.437710  25.656935  137.941653
0.000672  0.000000  0.000000  0.000000  -17.015487  1.232682  -4.421208  46.083151  7.600912  -9.264418  34.987551  19.608722  21.437710  25.656935  137.941653
0.000784  0.000000  0.000000  0.000000  -17.015487  1.232682  -0.671208  46.367234  4.892699  -11.874020  34.987551  19.608722  21.437710  25.656935  137.941653
0.000896  0.000000  0.000000  0.000000  -17.015487  1.232682  3.078792  46.526846  2.174470  -14.462543  34.987551  19.608722  21.437710  25.656935  137.941653
0.001009  0.000000  0.000000  0.000000  -17.015487  1.232682  6.828792  46.563465  -0.548177  -17.041745  34.987551  19.608722  21.437710  25.656935  137.941653
0.001121  0.000000  0.000000  0.000000  -17.015487  1.232682  10.578792  46.477431  -3.269713  -19.623294  34.987551  19.608722  21.437710  25.656935  137.941653
0.001233  0.000000  0.000000  0.000000  -17.015487  1.232682  14.328792  46.267948  -5.984590  -22.218881  34.987551  19.608722  21.437710  25.656935  137.941653
0.001345  0.000000  0.000000  0.000000  -17.015487  1.232682  18.078792  45.933073  -8.687151  -24.840338  34.987551  19.608722  21.437710  25.656935  137.941653
0.001457  0.000000  0.000000  0.000000  -17.015487  1.232682  21.828792  45.469727  -11.371556  -27.499732  34.987551  19.608722  21.437710  25.656935  137.941653
0.001569  0.000000  0.000000  0.000000  -17.015487  1.232682  25.578792  44.873651  -14.031649  -30.209512  34.987551  19.608722  21.437710  25.656935  137.941653
0.001681  0.000000  0.000000  0.000000  -17.015487  1.232682  29.328792  44.139431  -16.660903  -32.982562  34.987551  19.608722  21.437710  25.656935  137.941653
0.001793  0.000000  0.000000  0.000000  -17.015487  1.232682  33.078792  43.260480  -19.252265  -35.832293  34.987551  19.608722  21.437710  25.656935  137.941653
0.001905  0.000000  0.000000  0.000000  -17.015487  1.232682  36.828792  42.229063  -21.798106  -38.772710  34.987551  19.608722  21.437710  25.656935  137.941653
0.002017  0.000000  0.000000  0.000000  -17.015487  1.232682  40.578792  41.036343  -24.290062  -41.818395  34.987551  19.608722  21.437710  25.656935  137.941653
0.002129  0.000000  0.000000  0.000000  -17.015487  1.232682  44.328792  39.672492  -26.718925  -44.984478  34.987551  19.608722  21.437710  25.656935  137.941653
0.002241  0.000000  0.000000  0.000000  -17.015487  1.232682  48.078792  38.126886  -29.074484  -48.286506  34.987551  19.608722  21.437710  25.656935  137.941653
0.002353  0.000000  0.000000  0.000000  -17.015487  1.232682  51.828792  36.388364  -31.345513  -51.740177  34.987551  19.608722  21.437710  25.656935  137.941653
0.002465  0.000000  0.000000  0.000000  -17.015487  1.232682  55.578792  34.445699  -33.519558  -55.360977  34.987551  19.608722  21.437710  25.656935  137.941653
0.002577  0.000000  0.000000  0.000000  -17.015487  1.232682  59.328792  32.288190  -35.582924  -59.163582  34.987551  19.608722  21.437710  25.656935  137.941653
0.002689  0.000000  0.000000  0.000000  -17.015487  1.232682  63.078792  29.906601  -37.520708  -63.160961  34.987551  19.608722  21.437710  25.656935  137.941653
0.002801  0.000000  0.000000  0.000000  -14.537466  -2.147316  -26.921208  46.735265  36.107796  16.215185  24.627894  22.428262  13.903709  27.376304  143.820456
0.002913  0.000000  0.000000  0.000000  -14.537466  -2.147316  -23.171208  48.487938  33.337302  13.139561  24.627894  22.428262  13.903709  27.376304  143.820456
0.003026  0.000000  0.000000  0.000000  -14.537466  -2.147316  -19.421208  50.013154  30.495726  10.255973  24.627894  22.428262  13.903709  27.376304  143.820456
0.003138  0.000000  0.000000  0.000000  -14.537466  -2.147316  -15.671208  51.333430  27.594325  7.537802  24.627894  22.428262  13.903709  27.376304  143.820456
0.003250  0.000000  0.000000  0.000000  -14.537466  -2.147316  -11.921208  52.468320  24.642737  4.961057  24.627894  22.428262  13.903709  27.376304  143.820456
0.003362  0.000000  0.000000  0.000000  -14.537466  -2.147316  -8.171208  53.434498  21.649272  2.504185  24.627894  22.428262  13.903709  27.376304  143.820456
0.003474  0.000000  0.000000  0.000000  -14.537466  -2.147316  -4.421208  54.246061  18.621164  0.147759  24.627894  22.428262  13.903709  27.376304  143.820456
0.003586  0.000000  0.000000  0.000000  -14.537466  -2.147316  -0.671208  54.914621  15.564754  -2.125759  24.627894  22.428262  13.903709  27.376304  143.820456
0.003698  0.000000  0.000000  0.000000  -14.537466  -2.147316  3.078792  55.449666  12.485728  -4.332443  24.627894  22.428262  13.903709  27.376304  143.820456
0.003810  0.000000  0.000000  0.000000  -14.537466  -2.147316  6.828792  55.858669  9.389180  -6.487030  24.627894  22.428262  13.903709  27.376304  143.820456
0.003922  0.000000  0.000000  0.000000  -14.537466  -2.147316  10.578792  56.147284  6.279823  -8.603338  24.627894  22.428262  13.903709  27.376304  143.820456
0.004034  0.000000  0.000000  0.000000  -14.537466  -2.147316  14.328792  56.319473  3.162068  -10.694470  24.627894  22.428262  13.903709  27.376304  143.820456
0.004146  0.000000  0.000000  0.000000  -14.537466  -2.147316  18.078792  56.377578  0.040137  -12.773048  24.627894  22.428262  13.903709  27.376304  143.820456
0.004258  0.000000  0.000000  0.000000  -14.537466  -2.147316  21.828792  56.322386  -3.081845  -14.851465  24.627894  22.428262  13.903709  27.376304  143.820456
0.004370  0.000000  0.000000  0.000000  -14.537466  -2.147316  25.578792  56.153156  -6.199761  -16.942120  24.627894  22.428262  13.903709  27.376304  143.820456
0.004482  0.000000  0.000000  0.000000  -14.537466  -2.147316  29.328792  55.867568  -9.309379  -19.057632  24.627894  22.428262  13.903709  27.376304  143.820456
0.004594  0.000000  0.000000  0.000000  -14.537466  -2.147316  33.078792  55.461733  -12.406321  -21.211052  24.627894  22.428262  13.903709  27.376304  143.820456
0.004706  0.000000  0.000000  0.000000  -14.537466  -2.147316  36.828792  54.930016  -15.485869  -23.416201  24.627894  22.428262  13.903709  27.376304  143.820456
0.004818  0.000000  0.000000  0.000000  -14.537466  -2.147316  40.578792  54.264993  -18.542930  -25.687815  24.627894  22.428262  13.903709  27.376304  143.820456
0.004931  0.000000  0.000000  0.000000  -14.537466  -2.147316  44.328792  53.457259  -21.571834  -28.041898  24.627894  22.428262  13.903709  27.376304  143.820456
0.005043  0.000000  0.000000  0.000000  -14.537466  -2.147316  48.078792  52.495207  -24.566277  -30.495958  24.627894  22.428262  13.903709  27.376304  143.820456
0.005155  0.000000  0.000000  0.000000  -14.537466  -2.147316  51.828792  51.364853  -27.519035  -33.069363  24.627894  22.428262  13.903709  27.376304  143.820456
0.005267  0.000000  0.000000  0.000000  -14.537466  -2.147316  55.578792  50.049560  -30.421853  -35.783607  24.627894  22.428262  13.903709  27.376304  143.820456
0.005379  0.000000  0.000000  0.000000  -14.537466  -2.147316  59.328792  48.529905  -33.265091  -38.662619  24.627894  22.428262  13.903709  27.376304  143.820456
0.005491  0.000000  0.000000  0.000000  -14.537466  -2.147316  63.078792  46.783374  -36.037568  -41.732960  24.627894  22.428262  13.903709  27.376304  143.820456
0.005603  0.000000  0.000000  0.000000  -24.979241  6.558565  -26.921208  35.143074  32.947672  18.098496  18.853393  30.600227  19.006785  30.995454  129.588919
0.005715  0.000000  0.000000  0.000000  -24.979241  6.558565  -23.171208  37.026003  30.738188  14.531084  18.853393  30.600227  19.006785  30.995454  129.588919
0.005827  0.000000  0.000000  0.000000  -24.979241  6.558565  -19.421208  38.707510  28.435573  11.126894  18.853393  30.600227  19.006785  30.995454  129.588919
0.005939  0.000000  0.000000  0.000000  -24.979241  6.558565  -15.671208  40.198987  26.051931  7.870209  18.853393  30.600227  19.006785  30.995454  129.588919
0.006051  0.000000  0.000000  0.000000  -24.979241  6.558565  -11.921208  41.511578  23.598202  4.745229  18.853393  30.600227  19.006785  30.995454  129.588919
0.006163  0.000000  0.000000  0.000000  -24.979241  6.558565  -8.171208  42.655773  21.084272  1.736437  18.853393  30.600227  19.006785  30.995454  129.588919
0.006275  0.000000  0.000000  0.000000  -24.979241  6.558565  -4.421208  43.641240  18.519098  -1.171240  18.853393  30.600227  19.006785  30.995454  129.588919
0.006387  0.000000  0.000000  0.000000  -24.979241  6.558565  -0.671208  44.476513  15.910810  -3.992257  18.853393  30.600227  19.006785  30.995454  129.588919
0.006499  0.000000  0.000000  0.000000  -24.979241  6.558565  3.078792  45.169047  13.266851  -6.740484  18.853393  30.600227  19.006785  30.995454  129.588919
0.006611  0.000000  0.000000  0.000000  -24.979241  6.558565  6.828792  45.725127  10.594091  -9.429217  18.853393  30.600227  19.006785  30.995454  129.588919
0.006723  0.000000  0.000000  0.000000  -24.979241  6.558565  10.578792  46.149839  7.898926  -12.071220  18.853393  30.600227  19.006785  30.995454  129.588919
